<?xml version="1.0" encoding="iso-8859-1"?>
<!-- Generator: Adobe Illustrator 21.0.0, SVG Export Plug-In . SVG Version: 6.00 Build 0)  -->
<svg xmlns="http://www.w3.org/2000/svg" xmlns:xlink="http://www.w3.org/1999/xlink" version="1.1" id="Capa_1" x="0px" y="0px" viewBox="0 0 512 512" style="enable-background:new 0 0 512 512;" xml:space="preserve" width="512" height="512">
<g>
	<path d="M460.46,0H51.54C23.121,0,0,23.121,0,51.54v408.92C0,488.879,23.121,512,51.54,512h408.92   c28.419,0,51.54-23.121,51.54-51.54V51.54C512,23.121,488.879,0,460.46,0z M51.54,30h408.92C472.337,30,482,39.663,482,51.54   v45.954H30V51.54C30,39.663,39.663,30,51.54,30z M460.46,482H51.54C39.663,482,30,472.337,30,460.46V127.494h452V460.46   C482,472.337,472.337,482,460.46,482z"/>
	<path d="M64.968,78.934h32.554c8.284,0,15-6.716,15-15s-6.716-15-15-15H64.968c-8.284,0-15,6.716-15,15   S56.684,78.934,64.968,78.934z"/>
	<path d="M147.968,78.934h32.554c8.284,0,15-6.716,15-15s-6.716-15-15-15h-32.554c-8.284,0-15,6.716-15,15   S139.684,78.934,147.968,78.934z"/>
	<path d="M304.853,78.934h142.732c8.284,0,15-6.716,15-15s-6.716-15-15-15H304.853c-8.284,0-15,6.716-15,15   S296.568,78.934,304.853,78.934z"/>
	<path d="M110.552,358.979h27.701c26.418,0,47.911-21.493,47.911-47.911c0-12.733-4.993-24.321-13.124-32.911   c8.131-8.59,13.124-20.178,13.124-32.911c0-26.418-21.493-47.91-47.911-47.91h-27.701c-11.144,0-20.21,9.066-20.21,20.21V338.77   C90.341,349.913,99.408,358.979,110.552,358.979z M120.341,227.336h17.911c9.876,0,17.911,8.034,17.911,17.91   s-8.035,17.911-17.911,17.911h-17.911V227.336z M138.252,293.157c9.876,0,17.911,8.035,17.911,17.911s-8.035,17.911-17.911,17.911   h-17.911v-35.822H138.252z"/>
	<path d="M254.252,358.979c26.418,0,47.911-21.493,47.911-47.911v-98.732c0-8.284-6.716-15-15-15s-15,6.716-15,15v98.732   c0,9.876-8.034,17.911-17.911,17.911s-17.911-8.035-17.911-17.911v-98.732c0-8.284-6.716-15-15-15s-15,6.716-15,15v98.732   C206.341,337.486,227.834,358.979,254.252,358.979z"/>
	<path d="M402.353,197.336c-8.284,0-15,6.716-15,15v37.945c0,9.876-8.035,17.911-17.911,17.911s-17.91-8.035-17.91-17.911v-37.945   c0-8.284-6.716-15-15-15s-15,6.716-15,15v37.945c0,21.181,13.817,39.195,32.91,45.506v48.193c0,8.284,6.716,15,15,15   s15-6.716,15-15v-48.192c19.094-6.31,32.911-24.324,32.911-45.506v-37.945C417.353,204.052,410.637,197.336,402.353,197.336z"/>
	<path d="M402.353,389.182H105.341c-8.284,0-15,6.716-15,15s6.716,15,15,15h297.011c8.284,0,15-6.716,15-15   S410.637,389.182,402.353,389.182z"/>
</g>















</svg>
