<svg aria-hidden="true" style="position: absolute; width: 0; height: 0; overflow: hidden;" version="1.1" xmlns="http://www.w3.org/2000/svg" xmlns:xlink="http://www.w3.org/1999/xlink">
<defs>
<symbol id="icon-responsive-design" viewBox="0 0 32 32">
<title>responsive-design</title>
<path d="M10.105 21.503h4.463v1.029h-4.463v0.849h14.035v-0.849h-5.203v-1.029h5.787v-2.351h-14.619z"></path>
<path d="M6.218 7.36h21.277v8.505h1.823v-10.328h-24.923v5.695h1.823z"></path>
<path d="M0 26.081h9.517v-14.277h-9.517v14.277zM4.959 25.364c-0.253 0-0.459-0.204-0.459-0.458s0.206-0.458 0.459-0.458c0.254 0 0.458 0.204 0.458 0.458s-0.204 0.458-0.458 0.458zM1.376 13.18h6.766l-0.001 10.532h-6.765v-10.532z"></path>
<path d="M25.37 16.413v10.050h6.63v-10.050h-6.63zM28.82 16.828c0.079 0 0.144 0.066 0.144 0.145s-0.065 0.145-0.144 0.145c-0.081 0-0.146-0.066-0.146-0.145s0.065-0.145 0.146-0.145zM27.959 17.311h1.719v0.139h-1.719v-0.139zM28.762 26.029c-0.191 0-0.343-0.155-0.343-0.344s0.153-0.343 0.343-0.343c0.189 0 0.344 0.153 0.344 0.343 0 0.189-0.155 0.344-0.344 0.344zM31.041 24.846c-1.552 0.009-3.942 0.014-4.711 0.008v-6.91l4.711-0.001v6.903z"></path>
</symbol>
<symbol id="icon-external-link-symbol" viewBox="0 0 32 32">
<title>external-link-symbol</title>
<path d="M24.571 18.285h-1.143c-0.167 0-0.304 0.053-0.41 0.161s-0.161 0.244-0.161 0.41v5.714c0 0.786-0.28 1.458-0.839 2.018s-1.232 0.839-2.018 0.839h-14.857c-0.786 0-1.458-0.28-2.018-0.839s-0.839-1.232-0.839-2.018v-14.857c0-0.786 0.28-1.458 0.839-2.018s1.232-0.839 2.018-0.839h12.571c0.167 0 0.304-0.054 0.411-0.161s0.16-0.244 0.16-0.411v-1.143c0-0.167-0.053-0.304-0.16-0.41s-0.244-0.161-0.411-0.161h-12.571c-1.417 0-2.628 0.503-3.634 1.509s-1.509 2.217-1.509 3.634v14.857c0 1.416 0.503 2.628 1.509 3.634s2.217 1.509 3.634 1.509h14.857c1.416 0 2.628-0.503 3.634-1.509s1.509-2.217 1.509-3.634v-5.714c0-0.167-0.054-0.304-0.161-0.411s-0.244-0.161-0.411-0.161z"></path>
<path d="M31.66 2.625c-0.226-0.226-0.494-0.339-0.804-0.339h-9.143c-0.309 0-0.577 0.113-0.804 0.339s-0.34 0.494-0.34 0.804 0.113 0.577 0.34 0.804l3.143 3.143-11.643 11.643c-0.119 0.119-0.179 0.256-0.179 0.41s0.060 0.292 0.179 0.411l2.036 2.035c0.119 0.119 0.256 0.178 0.411 0.178s0.292-0.059 0.411-0.178l11.643-11.643 3.143 3.143c0.226 0.226 0.494 0.339 0.804 0.339s0.577-0.113 0.804-0.339c0.226-0.226 0.339-0.494 0.339-0.804v-9.143c-0-0.31-0.113-0.577-0.34-0.804z"></path>
</symbol>
<symbol id="icon-ionicons_svg_md-card" viewBox="0 0 32 32">
<title>ionicons_svg_md-card</title>
<path d="M27.2 5h-22.4c-1.556 0-2.788 1.225-2.788 2.75l-0.013 16.5c0 1.525 1.244 2.75 2.8 2.75h22.4c1.556 0 2.8-1.225 2.8-2.75v-16.5c0-1.525-1.244-2.75-2.8-2.75zM27.2 24.25h-22.4v-8.25h22.4v8.25zM27.2 10.5h-22.4v-2.75h22.4v2.75z"></path>
</symbol>
<symbol id="icon-ionicons_svg_md-time" viewBox="0 0 32 32">
<title>ionicons_svg_md-time</title>
<path d="M15.988 3c-7.175 0-12.988 5.825-12.988 13s5.813 13 12.988 13c7.188 0 13.012-5.825 13.012-13s-5.825-13-13.012-13zM16 26.4c-5.744 0-10.4-4.656-10.4-10.4s4.656-10.4 10.4-10.4 10.4 4.656 10.4 10.4-4.656 10.4-10.4 10.4z"></path>
<path d="M16.65 9.5h-1.95v7.8l6.825 4.094 0.975-1.6-5.85-3.469v-6.825z"></path>
</symbol>
<symbol id="icon-ionicons_svg_md-mail" viewBox="0 0 32 32">
<title>ionicons_svg_md-mail</title>
<path d="M27.333 5h-22.666c-1.467 0-2.667 1.2-2.667 2.667v16.667c0 1.467 1.2 2.667 2.667 2.667h22.666c1.467 0 2.667-1.2 2.667-2.667v-16.667c0-1.467-1.2-2.667-2.667-2.667zM27 10.667l-11 7.333-11-7.333v-2.667l11 7.333 11-7.333v2.667z"></path>
</symbol>
<symbol id="icon-ionicons_svg_md-call" viewBox="0 0 32 32">
<title>ionicons_svg_md-call</title>
<path d="M26.667 20.667c-1.691-0-3.319-0.268-4.844-0.764l0.111 0.031c-0.467-0.134-1-0.067-1.333 0.333l-2.934 2.933c-3.8-1.933-6.867-5-8.8-8.8l2.934-2.933c0.333-0.333 0.466-0.867 0.333-1.333-0.534-1.533-0.8-3.133-0.8-4.8 0-0.733-0.6-1.333-1.333-1.333h-4.667c-0.733 0-1.333 0.6-1.333 1.333 0 12.533 10.133 22.667 22.667 22.667 0.733 0 1.333-0.6 1.333-1.333v-4.667c0-0.733-0.6-1.333-1.333-1.333z"></path>
</symbol>
<symbol id="icon-chevron-small-down" viewBox="0 0 20 20">
<title>chevron-small-down</title>
<path d="M13.418 7.859c0.271-0.268 0.709-0.268 0.978 0s0.272 0.701 0 0.969l-3.908 3.83c-0.27 0.268-0.707 0.268-0.979 0l-3.908-3.83c-0.27-0.267-0.27-0.701 0-0.969s0.709-0.268 0.978 0l3.421 3.141 3.418-3.141z"></path>
</symbol>
<symbol id="icon-browser" viewBox="0 0 20 20">
<title>browser</title>
<path d="M18 2h-16c-1.1 0-2 0.9-2 2v12c0 1.1 0.9 2 2 2h16c1.1 0 2-0.9 2-2v-12c0-1.1-0.9-2-2-2zM4.5 3.75c0.414 0 0.75 0.336 0.75 0.75s-0.336 0.75-0.75 0.75c-0.414 0-0.75-0.336-0.75-0.75s0.336-0.75 0.75-0.75zM1.75 4.5c0-0.414 0.336-0.75 0.75-0.75s0.75 0.336 0.75 0.75c0 0.414-0.336 0.75-0.75 0.75s-0.75-0.336-0.75-0.75zM18 16h-16v-9h16v9zM18 5h-12v-1h12.019l-0.019 1z"></path>
</symbol>
<symbol id="icon-heart-outlined" viewBox="0 0 20 20">
<title>heart-outlined</title>
<path d="M17.19 4.156c-1.672-1.535-4.383-1.535-6.055 0l-1.135 1.041-1.136-1.041c-1.672-1.535-4.382-1.535-6.054 0-1.881 1.726-1.881 4.519 0 6.245l7.19 6.599 7.19-6.599c1.88-1.726 1.88-4.52 0-6.245zM16.124 9.375l-6.124 5.715-6.125-5.715c-0.617-0.567-0.856-1.307-0.856-2.094s0.138-1.433 0.756-1.999c0.545-0.501 1.278-0.777 2.063-0.777s1.517 0.476 2.062 0.978l2.1 1.825 2.099-1.826c0.546-0.502 1.278-0.978 2.063-0.978s1.518 0.276 2.063 0.777c0.618 0.566 0.755 1.212 0.755 1.999s-0.238 1.528-0.856 2.095z"></path>
</symbol>
<symbol id="icon-skype" viewBox="0 0 20 20">
<title>skype</title>
<path d="M18.671 12.037c0.132-0.623 0.203-1.272 0.203-1.938 0-4.986-3.93-9.029-8.777-9.029-0.511 0-1.012 0.047-1.5 0.133-0.785-0.508-1.712-0.803-2.707-0.803-2.811 0-5.090 2.344-5.090 5.237 0 0.965 0.256 1.871 0.699 2.648-0.116 0.586-0.178 1.194-0.178 1.815 0 4.986 3.93 9.029 8.775 9.029 0.551 0 1.087-0.051 1.607-0.15 0.717 0.396 1.535 0.621 2.406 0.621 2.811 0 5.090-2.344 5.090-5.236 0.001-0.837-0.19-1.626-0.528-2.327zM14.599 14.416c-0.406 0.59-1.006 1.059-1.783 1.391-0.769 0.33-1.692 0.496-2.742 0.496-1.26 0-2.317-0.227-3.143-0.678-0.59-0.328-1.076-0.771-1.445-1.318-0.372-0.555-0.561-1.104-0.561-1.633 0-0.33 0.123-0.617 0.365-0.852 0.24-0.232 0.549-0.352 0.916-0.352 0.301 0 0.562 0.094 0.773 0.277 0.202 0.176 0.375 0.438 0.514 0.773 0.156 0.367 0.326 0.676 0.505 0.92 0.172 0.234 0.42 0.432 0.735 0.586 0.318 0.154 0.748 0.232 1.275 0.232 0.725 0 1.32-0.158 1.768-0.473 0.438-0.309 0.65-0.676 0.65-1.127 0-0.357-0.111-0.637-0.34-0.857-0.238-0.228-0.555-0.408-0.936-0.531-0.399-0.127-0.941-0.266-1.611-0.41-0.91-0.201-1.683-0.439-2.299-0.707-0.63-0.275-1.137-0.658-1.508-1.137-0.375-0.483-0.567-1.092-0.567-1.807 0-0.682 0.2-1.297 0.596-1.828 0.393-0.525 0.965-0.935 1.703-1.217 0.728-0.277 1.596-0.418 2.576-0.418 0.783 0 1.473 0.094 2.047 0.277 0.578 0.186 1.066 0.436 1.449 0.744 0.387 0.311 0.674 0.643 0.854 0.986 0.182 0.35 0.275 0.695 0.275 1.031 0 0.322-0.121 0.615-0.361 0.871-0.24 0.258-0.543 0.387-0.9 0.387-0.324 0-0.58-0.082-0.756-0.242-0.164-0.148-0.336-0.383-0.524-0.717-0.219-0.428-0.484-0.766-0.788-1.002-0.295-0.232-0.788-0.35-1.466-0.35-0.629 0-1.141 0.131-1.519 0.387-0.368 0.249-0.545 0.532-0.545 0.866 0 0.207 0.058 0.379 0.176 0.525 0.125 0.158 0.301 0.295 0.523 0.41 0.23 0.12 0.467 0.214 0.705 0.282 0.244 0.070 0.654 0.172 1.215 0.307 0.711 0.156 1.363 0.332 1.939 0.521 0.585 0.193 1.090 0.43 1.502 0.705 0.42 0.283 0.754 0.645 0.989 1.076 0.237 0.434 0.357 0.969 0.357 1.59 0.001 0.745-0.206 1.422-0.613 2.016z"></path>
</symbol>
<symbol id="icon-facebook" viewBox="0 0 20 20">
<title>facebook</title>
<path d="M17 1h-14c-1.1 0-2 0.9-2 2v14c0 1.101 0.9 2 2 2h7v-7h-2v-2.475h2v-2.050c0-2.164 1.212-3.684 3.766-3.684l1.803 0.002v2.605h-1.197c-0.994 0-1.372 0.746-1.372 1.438v1.69h2.568l-0.568 2.474h-2v7h4c1.1 0 2-0.899 2-2v-14c0-1.1-0.9-2-2-2z"></path>
</symbol>
<symbol id="icon-github" viewBox="0 0 20 20">
<title>github</title>
<path d="M13.18 11.309c-0.718 0-1.3 0.807-1.3 1.799 0 0.994 0.582 1.801 1.3 1.801s1.3-0.807 1.3-1.801c-0.001-0.992-0.582-1.799-1.3-1.799zM17.706 6.626c0.149-0.365 0.155-2.439-0.635-4.426 0 0-1.811 0.199-4.551 2.080-0.575-0.16-1.548-0.238-2.519-0.238-0.973 0-1.945 0.078-2.52 0.238-2.741-1.881-4.552-2.080-4.552-2.080-0.789 1.987-0.781 4.061-0.634 4.426-0.928 1.008-1.495 2.219-1.495 3.871 0 7.186 5.963 7.301 7.467 7.301 0.342 0 1.018 0.002 1.734 0.002s1.392-0.002 1.732-0.002c1.506 0 7.467-0.115 7.467-7.301 0-1.652-0.566-2.863-1.494-3.871zM10.028 16.915h-0.056c-3.771 0-6.709-0.449-6.709-4.115 0-0.879 0.31-1.693 1.047-2.369 1.227-1.127 3.305-0.531 5.662-0.531 0.010 0 0.020 0 0.029 0s0.018 0 0.027 0c2.357 0 4.436-0.596 5.664 0.531 0.735 0.676 1.045 1.49 1.045 2.369 0 3.666-2.937 4.115-6.709 4.115zM6.821 11.309c-0.718 0-1.3 0.807-1.3 1.799 0 0.994 0.582 1.801 1.3 1.801s1.301-0.807 1.301-1.801c0-0.992-0.582-1.799-1.301-1.799z"></path>
</symbol>
<symbol id="icon-linkedin" viewBox="0 0 20 20">
<title>linkedin</title>
<path d="M5 3c0 1.062-0.71 1.976-2.001 1.976-1.215 0-1.999-0.862-1.999-1.924 0-1.090 0.76-2.052 2-2.052s1.976 0.91 2 2zM1 19v-13h4v13h-4z"></path>
<path d="M7 10.444c0-1.545-0.051-2.836-0.102-3.951h3.594l0.178 1.723h0.076c0.506-0.811 1.746-2 3.822-2 2.532 0 4.432 1.695 4.432 5.342v7.442h-4v-6.861c0-1.594-0.607-2.81-2-2.81-1.062 0-1.594 0.86-1.873 1.569-0.102 0.254-0.127 0.608-0.127 0.963v7.139h-4v-8.556z"></path>
</symbol>
<symbol id="icon-twitter" viewBox="0 0 20 20">
<title>twitter</title>
<path d="M17.316 6.246c0.008 0.162 0.011 0.326 0.011 0.488 0 4.99-3.797 10.742-10.74 10.742-2.133 0-4.116-0.625-5.787-1.697 0.296 0.035 0.596 0.053 0.9 0.053 1.77 0 3.397-0.604 4.688-1.615-1.651-0.031-3.046-1.121-3.526-2.621 0.23 0.043 0.467 0.066 0.71 0.066 0.345 0 0.679-0.045 0.995-0.131-1.727-0.348-3.028-1.873-3.028-3.703 0-0.016 0-0.031 0-0.047 0.509 0.283 1.092 0.453 1.71 0.473-1.013-0.678-1.68-1.832-1.68-3.143 0-0.691 0.186-1.34 0.512-1.898 1.861 2.285 4.644 3.787 7.781 3.945-0.064-0.277-0.097-0.564-0.097-0.861 0-2.084 1.689-3.773 3.774-3.773 1.086 0 2.067 0.457 2.756 1.191 0.859-0.17 1.667-0.484 2.397-0.916-0.282 0.881-0.881 1.621-1.66 2.088 0.764-0.092 1.49-0.293 2.168-0.594-0.506 0.758-1.146 1.422-1.884 1.953z"></path>
</symbol>
</defs>
</svg>
