<svg aria-hidden="true" style="position: absolute; width: 0; height: 0; overflow: hidden;" version="1.1" xmlns="http://www.w3.org/2000/svg" xmlns:xlink="http://www.w3.org/1999/xlink">
<defs>
<symbol id="icon-rocket-ship" viewBox="0 0 32 32">
<title>rocket-ship</title>
<path d="M31.82 0.649c-0.034-0.275-0.251-0.492-0.526-0.526-2.48-0.307-5.038-0.039-7.4 0.773s-4.545 2.175-6.311 3.941l-4.031 4.031-5.818 0.75c-0.133 0.017-0.256 0.078-0.35 0.172l-5.61 5.61c-0.159 0.159-0.217 0.393-0.15 0.607s0.247 0.374 0.467 0.415l4.241 0.786 0.833 0.833-1.774 0.961c-0.168 0.091-0.283 0.256-0.311 0.445s0.036 0.38 0.171 0.515l6.729 6.729c0.114 0.114 0.268 0.177 0.428 0.177 0.029 0 0.058-0.002 0.087-0.006 0.189-0.027 0.354-0.143 0.445-0.311l0.961-1.774 0.833 0.833 0.786 4.241c0.041 0.221 0.201 0.401 0.415 0.467 0.059 0.018 0.119 0.027 0.179 0.027 0.158 0 0.313-0.062 0.428-0.177l5.61-5.61c0.095-0.095 0.155-0.218 0.172-0.35l0.75-5.818 4.031-4.031c1.766-1.766 3.129-3.948 3.941-6.311s1.079-4.921 0.773-7.4zM6.425 15.996l-2.983-0.552 4.651-4.651 4.059-0.523-5.727 5.727zM12.263 25.262l-5.582-5.582 1.378-0.746 4.95 4.95-0.746 1.378zM21.151 23.85l-4.651 4.651-0.553-2.983 5.727-5.727-0.523 4.059zM26.25 13.505l-10.955 10.955-7.812-7.812 10.955-10.955c1.592-1.592 3.548-2.829 5.668-3.588 0.274 1.411 0.963 2.719 1.988 3.744s2.333 1.714 3.744 1.988c-0.759 2.12-1.996 4.076-3.588 5.668zM30.202 6.675c-1.226-0.209-2.366-0.795-3.253-1.681s-1.472-2.026-1.681-3.252c1.753-0.472 3.595-0.634 5.402-0.468 0.165 1.807 0.004 3.649-0.468 5.402z"></path>
<path d="M17.848 8.906c-1.431 1.431-1.431 3.758 0 5.189 0.715 0.715 1.655 1.073 2.595 1.073s1.879-0.358 2.594-1.073h0c1.431-1.431 1.431-3.758-0-5.189s-3.758-1.431-5.189 0zM22.182 13.24c-0.959 0.959-2.52 0.959-3.478 0s-0.959-2.519 0-3.478c0.479-0.479 1.109-0.719 1.739-0.719s1.26 0.24 1.739 0.719c0.959 0.959 0.959 2.519 0 3.478z"></path>
<path d="M7.932 24.125c-0.236-0.236-0.619-0.236-0.855 0l-5.189 5.189c-0.236 0.236-0.236 0.619 0 0.855 0.118 0.118 0.273 0.177 0.428 0.177s0.31-0.059 0.428-0.177l5.189-5.189c0.236-0.236 0.236-0.619 0-0.855z"></path>
<path d="M8.73 25.779l-2.338 2.338c-0.236 0.236-0.236 0.619 0 0.855 0.118 0.118 0.273 0.177 0.428 0.177s0.31-0.059 0.428-0.177l2.338-2.338c0.236-0.236 0.236-0.619 0-0.855s-0.619-0.236-0.855 0z"></path>
<path d="M5.574 29.185c-0.253 0-0.484 0.163-0.569 0.401-0.087 0.242-0.006 0.519 0.195 0.679 0.205 0.163 0.505 0.172 0.72 0.021 0.229-0.16 0.322-0.469 0.213-0.728-0.090-0.224-0.318-0.373-0.558-0.373z"></path>
<path d="M6.132 29.559c0.015 0.036-0.014-0.036 0 0v0z"></path>
<path d="M3.864 30.646l-0.322 0.322c-0.236 0.236-0.236 0.619-0 0.855 0.118 0.118 0.273 0.177 0.428 0.177s0.31-0.059 0.428-0.177l0.322-0.322c0.236-0.236 0.236-0.619 0-0.855s-0.619-0.236-0.855-0z"></path>
<path d="M3.427 25.322c-0.236-0.236-0.619-0.236-0.855 0l-2.338 2.338c-0.236 0.236-0.236 0.619 0 0.855 0.118 0.118 0.273 0.177 0.428 0.177s0.31-0.059 0.428-0.177l2.338-2.338c0.236-0.236 0.236-0.619-0-0.855z"></path>
<path d="M4.393 25.090c0.245-0.062 0.43-0.276 0.455-0.527 0.025-0.246-0.11-0.488-0.33-0.599-0.233-0.118-0.526-0.069-0.707 0.12-0.194 0.203-0.222 0.518-0.069 0.753-0.005-0.007-0.009-0.013 0.001 0.002s0.007 0.010 0.002 0.002c0.143 0.207 0.403 0.31 0.648 0.248z"></path>
<path d="M5.957 23.648l0.322-0.322c0.236-0.236 0.236-0.619-0-0.855s-0.619-0.236-0.855 0l-0.322 0.322c-0.236 0.236-0.236 0.619 0 0.855 0.118 0.118 0.273 0.177 0.428 0.177s0.31-0.059 0.428-0.177z"></path>
</symbol>
<symbol id="icon-security" viewBox="0 0 32 32">
<title>security</title>
<path d="M29.518 5.040c-2.202-0.060-3.973-1.839-4.033-4.049v-0c-0.016-0.591-0.491-1.054-1.081-1.054h-16.799c-0.59 0-1.065 0.463-1.081 1.054-0.060 2.21-1.832 3.989-4.033 4.049-0.591 0.016-1.054 0.491-1.054 1.081v5.179c0 4.487 1.344 8.809 3.888 12.5s6.099 6.479 10.283 8.065c0.128 0.048 0.262 0.073 0.396 0.073s0.268-0.024 0.396-0.073c4.184-1.585 7.74-4.374 10.283-8.065s3.888-8.013 3.888-12.5v-5.179c0-0.59-0.463-1.065-1.053-1.081zM28.696 11.3c0 4.105-1.23 8.059-3.557 11.435-2.271 3.296-5.425 5.805-9.135 7.271-3.709-1.466-6.864-3.975-9.135-7.271-2.327-3.376-3.557-7.331-3.557-11.435v-4.456c2.579-0.404 4.614-2.445 5.016-5.031h15.351c0.402 2.586 2.437 4.627 5.016 5.031z"></path>
<path d="M20.329 12.483h-0.633v-2.273c0-2.035-1.656-3.691-3.692-3.691s-3.691 1.656-3.691 3.691v2.273h-0.633c-0.658 0-1.193 0.535-1.193 1.193v8.649c0 0.658 0.535 1.193 1.193 1.193h8.649c0.658 0 1.193-0.535 1.193-1.193v-8.649c0-0.658-0.535-1.193-1.193-1.193zM14.189 10.21c0-1.001 0.814-1.816 1.816-1.816s1.816 0.815 1.816 1.816v2.273h-3.632zM12.363 21.643v-7.246h7.284v7.246z"></path>
<path d="M16.005 15.502c-0.518 0-0.938 0.42-0.938 0.938v3.122c0 0.518 0.42 0.938 0.938 0.938s0.938-0.42 0.938-0.938v-3.122c0-0.518-0.42-0.938-0.938-0.938z"></path>
</symbol>
<symbol id="icon-web-design" viewBox="0 0 32 32">
<title>web-design</title>
<path d="M30.832 2.313h-29.663c-0.644 0-1.168 0.524-1.168 1.168v25.108c0 0.644 0.524 1.168 1.168 1.168h29.663c0.644 0 1.168-0.524 1.168-1.168v-25.108c0-0.644-0.524-1.168-1.168-1.168zM30.125 4.188v1.4l-10.961 0.027c-0.293 0.001-0.572 0.111-0.787 0.311l-1.542 1.439h-14.96v-3.177zM1.875 27.882v-18.643h15.244c0.294 0 0.574-0.11 0.789-0.311l1.543-1.44 10.675-0.026v20.42z"></path>
<path d="M6.074 5.982c0.006 0.030 0.013 0.060 0.022 0.089s0.020 0.058 0.031 0.086c0.012 0.028 0.025 0.056 0.039 0.083s0.030 0.053 0.047 0.079c0.017 0.026 0.036 0.051 0.055 0.074s0.040 0.047 0.062 0.069c0.021 0.022 0.044 0.042 0.068 0.062s0.049 0.038 0.074 0.054c0.025 0.017 0.052 0.033 0.079 0.047s0.055 0.028 0.083 0.039c0.028 0.012 0.057 0.022 0.086 0.031s0.059 0.016 0.089 0.022c0.030 0.006 0.061 0.011 0.091 0.014s0.062 0.004 0.092 0.004c0.031 0 0.062-0.001 0.093-0.004s0.061-0.007 0.091-0.014c0.030-0.006 0.060-0.014 0.089-0.022s0.058-0.019 0.086-0.031c0.028-0.011 0.056-0.024 0.083-0.039s0.053-0.031 0.079-0.047c0.025-0.017 0.051-0.035 0.074-0.054 0.024-0.019 0.047-0.040 0.069-0.062s0.043-0.045 0.062-0.069c0.019-0.023 0.037-0.048 0.055-0.074 0.016-0.026 0.032-0.052 0.047-0.079s0.028-0.055 0.039-0.083c0.012-0.028 0.022-0.058 0.031-0.086s0.016-0.060 0.022-0.089c0.006-0.030 0.011-0.061 0.014-0.091s0.004-0.062 0.004-0.092c0-0.031-0.001-0.061-0.004-0.092s-0.007-0.061-0.014-0.091c-0.006-0.030-0.014-0.060-0.022-0.089s-0.020-0.058-0.031-0.086c-0.011-0.029-0.024-0.056-0.039-0.083s-0.031-0.054-0.047-0.079c-0.018-0.026-0.036-0.051-0.055-0.074s-0.040-0.047-0.062-0.068c-0.022-0.022-0.044-0.042-0.069-0.062-0.023-0.020-0.048-0.038-0.074-0.055s-0.052-0.032-0.079-0.047-0.055-0.027-0.083-0.039c-0.028-0.011-0.057-0.022-0.086-0.031s-0.059-0.017-0.089-0.023c-0.030-0.006-0.061-0.011-0.091-0.014-0.061-0.006-0.123-0.006-0.184 0-0.031 0.003-0.061 0.008-0.091 0.014s-0.059 0.013-0.089 0.023c-0.030 0.009-0.058 0.019-0.086 0.031s-0.056 0.025-0.083 0.039-0.054 0.030-0.079 0.047c-0.026 0.017-0.051 0.036-0.074 0.055s-0.047 0.040-0.068 0.062c-0.022 0.021-0.042 0.044-0.062 0.068s-0.038 0.049-0.055 0.074c-0.017 0.025-0.032 0.052-0.047 0.079s-0.027 0.054-0.039 0.083c-0.011 0.028-0.022 0.057-0.031 0.086s-0.017 0.059-0.022 0.089c-0.006 0.030-0.011 0.061-0.014 0.091s-0.005 0.061-0.005 0.092c0 0.031 0.002 0.062 0.005 0.092s0.008 0.061 0.014 0.091z"></path>
<path d="M3.399 6.523c0.024 0.020 0.049 0.038 0.074 0.054s0.052 0.033 0.079 0.048c0.027 0.014 0.055 0.027 0.083 0.039s0.057 0.022 0.086 0.031c0.030 0.009 0.059 0.016 0.089 0.022s0.061 0.011 0.091 0.014c0.031 0.003 0.061 0.004 0.092 0.004s0.062-0.001 0.093-0.004c0.030-0.003 0.061-0.008 0.091-0.014s0.060-0.014 0.089-0.022c0.029-0.009 0.058-0.019 0.086-0.031s0.056-0.024 0.083-0.039c0.027-0.014 0.053-0.031 0.079-0.048s0.051-0.035 0.074-0.054c0.024-0.019 0.047-0.040 0.069-0.062s0.042-0.045 0.062-0.069c0.019-0.023 0.037-0.048 0.054-0.074s0.033-0.052 0.048-0.079c0.014-0.027 0.027-0.055 0.039-0.083s0.022-0.057 0.031-0.086c0.009-0.029 0.016-0.059 0.022-0.089s0.011-0.061 0.014-0.091c0.003-0.031 0.004-0.062 0.004-0.093s-0.001-0.061-0.004-0.092c-0.003-0.031-0.008-0.061-0.014-0.091s-0.014-0.059-0.022-0.089c-0.009-0.029-0.020-0.058-0.031-0.086s-0.024-0.056-0.039-0.083c-0.014-0.027-0.031-0.054-0.048-0.079s-0.035-0.051-0.054-0.074c-0.020-0.024-0.040-0.047-0.062-0.068s-0.045-0.042-0.069-0.063c-0.023-0.019-0.048-0.037-0.074-0.054s-0.052-0.033-0.079-0.047c-0.027-0.014-0.055-0.028-0.083-0.040s-0.057-0.022-0.086-0.031c-0.029-0.009-0.059-0.017-0.089-0.022s-0.061-0.011-0.091-0.014c-0.061-0.006-0.123-0.006-0.184 0-0.031 0.003-0.061 0.008-0.091 0.014s-0.059 0.013-0.089 0.022c-0.029 0.009-0.058 0.019-0.086 0.031s-0.056 0.025-0.083 0.040c-0.027 0.014-0.054 0.030-0.079 0.047s-0.051 0.036-0.074 0.054c-0.024 0.020-0.047 0.041-0.068 0.063s-0.042 0.044-0.062 0.068c-0.019 0.024-0.038 0.049-0.055 0.074s-0.032 0.052-0.047 0.079c-0.014 0.027-0.028 0.054-0.040 0.083s-0.022 0.057-0.031 0.086c-0.009 0.030-0.017 0.059-0.022 0.089s-0.010 0.061-0.014 0.091c-0.003 0.031-0.005 0.061-0.005 0.092 0 0.247 0.1 0.488 0.275 0.663 0.021 0.022 0.044 0.042 0.068 0.062z"></path>
<path d="M9.137 5.982c0.006 0.030 0.013 0.060 0.022 0.089s0.019 0.058 0.031 0.086c0.012 0.028 0.025 0.056 0.039 0.083s0.030 0.053 0.047 0.079c0.017 0.026 0.036 0.051 0.055 0.074s0.040 0.047 0.062 0.069c0.021 0.022 0.044 0.042 0.068 0.062s0.049 0.038 0.074 0.054c0.025 0.017 0.052 0.033 0.079 0.047s0.055 0.028 0.083 0.039c0.028 0.012 0.057 0.022 0.086 0.031s0.059 0.016 0.089 0.022c0.030 0.006 0.061 0.011 0.091 0.014s0.062 0.004 0.092 0.004c0.031 0 0.062-0.001 0.092-0.004s0.061-0.007 0.091-0.014c0.030-0.006 0.059-0.014 0.089-0.022s0.058-0.019 0.086-0.031c0.028-0.011 0.056-0.024 0.083-0.039s0.054-0.031 0.079-0.047c0.026-0.017 0.051-0.035 0.074-0.054s0.047-0.040 0.068-0.062c0.022-0.022 0.042-0.045 0.062-0.069s0.038-0.048 0.055-0.074c0.016-0.026 0.033-0.052 0.047-0.079s0.028-0.055 0.039-0.083c0.012-0.028 0.022-0.058 0.031-0.086s0.016-0.060 0.022-0.089c0.006-0.030 0.011-0.061 0.014-0.091s0.004-0.062 0.004-0.092c0-0.031-0.001-0.061-0.004-0.092s-0.007-0.061-0.014-0.091c-0.006-0.030-0.014-0.059-0.022-0.089s-0.019-0.058-0.031-0.086c-0.011-0.028-0.024-0.056-0.039-0.083s-0.031-0.054-0.047-0.079c-0.017-0.026-0.035-0.051-0.055-0.074s-0.040-0.047-0.062-0.068c-0.021-0.022-0.044-0.042-0.068-0.062s-0.049-0.038-0.074-0.055c-0.025-0.017-0.052-0.032-0.079-0.047s-0.055-0.027-0.083-0.039c-0.028-0.011-0.057-0.022-0.086-0.031s-0.059-0.017-0.089-0.023c-0.031-0.006-0.061-0.011-0.091-0.014-0.061-0.006-0.123-0.006-0.184 0-0.031 0.003-0.061 0.008-0.091 0.014s-0.059 0.014-0.089 0.023c-0.029 0.009-0.058 0.019-0.086 0.031s-0.056 0.025-0.083 0.039c-0.027 0.014-0.054 0.030-0.079 0.047s-0.051 0.036-0.074 0.055c-0.024 0.019-0.047 0.040-0.068 0.062s-0.042 0.044-0.062 0.068c-0.020 0.024-0.038 0.049-0.055 0.074s-0.032 0.052-0.047 0.079c-0.014 0.027-0.027 0.055-0.039 0.083s-0.022 0.057-0.031 0.086c-0.010 0.029-0.017 0.059-0.022 0.089s-0.011 0.061-0.014 0.091c-0.003 0.031-0.005 0.061-0.005 0.092s0.002 0.062 0.005 0.092c0.003 0.030 0.008 0.061 0.014 0.091z"></path>
<path d="M12.092 14.079c-0.355-0.376-0.948-0.394-1.325-0.039l-3.952 3.726c-0.195 0.185-0.307 0.445-0.307 0.714s0.113 0.529 0.308 0.713l3.951 3.725c0.181 0.171 0.412 0.255 0.643 0.255 0.249 0 0.498-0.099 0.682-0.294 0.355-0.376 0.338-0.97-0.039-1.325l-3.261-3.075 3.261-3.075c0.377-0.355 0.394-0.949 0.039-1.325z"></path>
<path d="M18.015 13.866c-0.473-0.211-1.027 0.002-1.238 0.475l-3.346 7.514c-0.211 0.473 0.002 1.027 0.475 1.238 0.124 0.055 0.253 0.081 0.381 0.081 0.359 0 0.701-0.207 0.857-0.556l3.346-7.514c0.211-0.473-0.002-1.027-0.475-1.238z"></path>
<path d="M21.233 14.040c-0.377-0.355-0.97-0.338-1.325 0.039s-0.338 0.97 0.039 1.325l3.261 3.075-3.261 3.075c-0.377 0.355-0.394 0.948-0.039 1.325 0.185 0.196 0.433 0.294 0.682 0.294 0.23 0 0.462-0.085 0.643-0.255l3.951-3.725c0.196-0.184 0.308-0.444 0.308-0.713s-0.112-0.529-0.308-0.714z"></path>
</symbol>
<symbol id="icon-support" viewBox="0 0 32 32">
<title>support</title>
<path d="M31.947 15.277c-0.427-1.754-1.176-3.376-2.227-4.822-1.057-1.454-2.322-2.668-3.759-3.611-1.419-0.931-3-1.66-4.701-2.166-0.751-0.223-1.513-0.398-2.283-0.523v-1.211c0-1.623-1.321-2.944-2.944-2.944s-2.944 1.321-2.944 2.944v1.199c-1.349 0.21-2.66 0.567-3.918 1.068-2.174 0.867-4.099 2.188-5.722 3.926-1.627 1.742-2.748 3.807-3.329 6.138-0.051 0.156-0.058 0.299-0.058 0.402 0 0.408 0.155 0.779 0.447 1.070s0.662 0.446 1.069 0.446c0.357 0 0.699-0.134 1.016-0.398l0.041-0.036c0.525-0.493 1.021-0.863 1.473-1.099 0.392-0.205 0.866-0.309 1.409-0.309 0.648 0 1.243 0.173 1.821 0.529 0.611 0.377 1.146 0.88 1.588 1.495 0.048 0.070 0.134 0.201 0.271 0.436 0.177 0.303 0.25 0.418 0.289 0.478 0.307 0.47 0.764 0.729 1.289 0.729 0.536 0 1-0.259 1.307-0.73 0.040-0.060 0.113-0.176 0.288-0.476 0.112-0.191 0.204-0.339 0.273-0.438 0.14-0.195 0.29-0.377 0.447-0.549v12.231c0 1.623 1.321 2.943 2.944 2.943s2.944-1.321 2.944-2.944v-12.231c0.157 0.172 0.307 0.354 0.447 0.549 0.066 0.095 0.158 0.242 0.271 0.435 0.176 0.303 0.25 0.419 0.29 0.479 0.307 0.47 0.77 0.728 1.306 0.728 0.524 0 0.981-0.259 1.288-0.729 0.040-0.060 0.114-0.176 0.289-0.476 0.115-0.196 0.207-0.343 0.272-0.437 0.443-0.616 0.978-1.12 1.588-1.497 0.577-0.356 1.173-0.529 1.821-0.529 0.542 0 1.017 0.104 1.409 0.309 0.451 0.236 0.947 0.606 1.473 1.099l0.041 0.036c0.316 0.265 0.659 0.399 1.017 0.399 0.408 0 0.778-0.155 1.070-0.446s0.446-0.662 0.446-1.069v-0.007c-0.001-0.102-0.009-0.241-0.058-0.393zM14.965 2.944c0-0.589 0.479-1.069 1.069-1.069s1.069 0.48 1.069 1.069v1.004c-0.356-0.021-0.712-0.032-1.069-0.032-0.358 0-0.714 0.011-1.068 0.031zM16.034 30.125c-0.589 0-1.069-0.48-1.069-1.069v-13.534c0.342-0.116 0.696-0.174 1.068-0.174s0.726 0.058 1.069 0.174v13.533c0 0.589-0.48 1.069-1.069 1.069zM28.828 13.996c-0.663-0.347-1.429-0.522-2.277-0.522-0.991 0-1.935 0.272-2.805 0.808-0.825 0.509-1.541 1.183-2.13 2.004l-0.006 0.008c-0.091 0.129-0.195 0.293-0.326 0.517-0.131-0.222-0.235-0.387-0.326-0.516l-0.005-0.008c-0.588-0.82-1.301-1.493-2.119-2.002-0.864-0.538-1.806-0.81-2.799-0.81s-1.934 0.272-2.799 0.81c-0.818 0.509-1.531 1.182-2.119 2.002l-0.007 0.010c-0.091 0.13-0.197 0.298-0.324 0.514-0.126-0.214-0.233-0.383-0.325-0.514l-0.007-0.009c-0.588-0.821-1.305-1.495-2.131-2.004-0.87-0.536-1.813-0.808-2.805-0.808-0.848 0-1.614 0.176-2.277 0.522-0.314 0.164-0.637 0.37-0.966 0.615 0.551-1.565 1.404-2.972 2.546-4.195 1.434-1.535 3.132-2.7 5.047-3.464 1.934-0.771 4.008-1.162 6.166-1.162 1.588 0 3.167 0.23 4.693 0.684s2.94 1.105 4.207 1.936c1.247 0.818 2.348 1.877 3.271 3.146 0.682 0.939 1.218 1.965 1.598 3.061-0.332-0.249-0.657-0.456-0.973-0.621z"></path>
</symbol>
<symbol id="icon-schedule" viewBox="0 0 32 32">
<title>schedule</title>
<path d="M30.729 3.772h-3.823v-1.397c0-0.518-0.42-0.938-0.938-0.938s-0.938 0.42-0.938 0.938v1.397h-3.125v-1.397c0-0.518-0.42-0.938-0.938-0.938s-0.938 0.42-0.938 0.938v1.397h-3.125v-1.397c0-0.518-0.42-0.938-0.938-0.938s-0.938 0.42-0.938 0.938v1.397h-3.063v-1.397c0-0.518-0.42-0.938-0.938-0.938s-0.938 0.42-0.938 0.938v1.397h-3.125v-1.397c0-0.518-0.42-0.938-0.938-0.938s-0.938 0.42-0.938 0.938v1.397h-3.823c-0.701 0-1.271 0.57-1.271 1.271v24.29c0 0.701 0.57 1.271 1.271 1.271h29.459c0.701 0 1.271-0.57 1.271-1.271v-24.29c0-0.701-0.57-1.271-1.271-1.271zM5.094 5.647v0.768c0 0.518 0.42 0.938 0.938 0.938s0.938-0.42 0.938-0.938v-0.768h3.125v0.768c0 0.518 0.42 0.938 0.938 0.938s0.938-0.42 0.938-0.938v-0.768h3.063v0.768c0 0.518 0.42 0.938 0.938 0.938s0.938-0.42 0.938-0.938v-0.768h3.125v0.768c0 0.518 0.42 0.938 0.938 0.938s0.938-0.42 0.938-0.938v-0.768h3.125v0.768c0 0.518 0.42 0.938 0.938 0.938s0.938-0.42 0.938-0.938v-0.768h3.219v2.55h-28.25v-2.55zM1.875 28.728v-18.656h28.25v18.656z"></path>
<path d="M7.497 20.678h-1.662c-0.518 0-0.938 0.42-0.938 0.938s0.42 0.938 0.938 0.938h1.662c0.518 0 0.938-0.42 0.938-0.938s-0.42-0.938-0.938-0.938z"></path>
<path d="M26.048 20.678h-1.662c-0.518 0-0.938 0.42-0.938 0.938s0.42 0.938 0.938 0.938h1.662c0.518 0 0.938-0.42 0.938-0.938s-0.42-0.938-0.938-0.938z"></path>
<path d="M19.812 20.678h-1.662c-0.518 0-0.938 0.42-0.938 0.938s0.42 0.938 0.938 0.938h1.662c0.518 0 0.938-0.42 0.938-0.938s-0.42-0.938-0.938-0.938z"></path>
<path d="M13.716 20.678h-1.662c-0.518 0-0.938 0.42-0.938 0.938s0.42 0.938 0.938 0.938h1.662c0.518 0 0.938-0.42 0.938-0.938s-0.42-0.938-0.938-0.938z"></path>
<path d="M7.497 16.305h-1.662c-0.518 0-0.938 0.42-0.938 0.938s0.42 0.938 0.938 0.938h1.662c0.518 0 0.938-0.42 0.938-0.938s-0.42-0.938-0.938-0.938z"></path>
<path d="M26.048 16.305h-1.662c-0.518 0-0.938 0.42-0.938 0.938s0.42 0.938 0.938 0.938h1.662c0.518 0 0.938-0.42 0.938-0.938s-0.42-0.938-0.938-0.938z"></path>
<path d="M19.812 16.305h-1.662c-0.518 0-0.938 0.42-0.938 0.938s0.42 0.938 0.938 0.938h1.662c0.518 0 0.938-0.42 0.938-0.938s-0.42-0.938-0.938-0.938z"></path>
<path d="M13.716 16.305h-1.662c-0.518 0-0.938 0.42-0.938 0.938s0.42 0.938 0.938 0.938h1.662c0.518 0 0.938-0.42 0.938-0.938s-0.42-0.938-0.938-0.938z"></path>
<path d="M7.497 11.932h-1.662c-0.518 0-0.938 0.42-0.938 0.938s0.42 0.938 0.938 0.938h1.662c0.518 0 0.938-0.42 0.938-0.938s-0.42-0.938-0.938-0.938z"></path>
<path d="M26.048 11.932h-1.662c-0.518 0-0.938 0.42-0.938 0.938s0.42 0.938 0.938 0.938h1.662c0.518 0 0.938-0.42 0.938-0.938s-0.42-0.938-0.938-0.938z"></path>
<path d="M19.812 11.932h-1.662c-0.518 0-0.938 0.42-0.938 0.938s0.42 0.938 0.938 0.938h1.662c0.518 0 0.938-0.42 0.938-0.938s-0.42-0.938-0.938-0.938z"></path>
<path d="M13.716 11.932h-1.662c-0.518 0-0.938 0.42-0.938 0.938s0.42 0.938 0.938 0.938h1.662c0.518 0 0.938-0.42 0.938-0.938s-0.42-0.938-0.938-0.938z"></path>
<path d="M7.493 25.108h-1.662c-0.518 0-0.938 0.42-0.938 0.938s0.42 0.938 0.938 0.938h1.662c0.518 0 0.938-0.42 0.938-0.938s-0.42-0.938-0.938-0.938z"></path>
<path d="M26.044 25.108h-1.662c-0.518 0-0.938 0.42-0.938 0.938s0.42 0.938 0.938 0.938h1.662c0.518 0 0.938-0.42 0.938-0.938s-0.42-0.938-0.938-0.938z"></path>
<path d="M19.808 25.108h-1.662c-0.518 0-0.938 0.42-0.938 0.938s0.42 0.938 0.938 0.938h1.662c0.518 0 0.938-0.42 0.938-0.938s-0.42-0.938-0.938-0.938z"></path>
<path d="M13.711 25.108h-1.662c-0.518 0-0.938 0.42-0.938 0.938s0.42 0.938 0.938 0.938h1.662c0.518 0 0.938-0.42 0.938-0.938s-0.42-0.938-0.938-0.938z"></path>
</symbol>
<symbol id="icon-mobile-development" viewBox="0 0 32 32">
<title>mobile-development</title>
<path d="M25.234 0h-18.468c-0.595 0-1.079 0.484-1.079 1.079v29.843c0 0.595 0.484 1.079 1.079 1.079h18.468c0.595 0 1.079-0.484 1.079-1.079v-29.843c0-0.595-0.484-1.079-1.079-1.079zM24.438 1.875v24.722h-16.875v-24.722zM7.563 30.125v-1.653h16.875v1.653z"></path>
<path d="M14.107 5.005h3.786c0.518 0 0.938-0.42 0.938-0.938s-0.42-0.938-0.938-0.938h-3.786c-0.518 0-0.938 0.42-0.938 0.938s0.42 0.938 0.938 0.938z"></path>
<path d="M9.896 18.524l0.377 0.064-0.207 0.288c-0.502 0.705-0.421 1.658 0.189 2.262l0.825 0.826c0.333 0.333 0.774 0.516 1.242 0.516 0.369 0 0.723-0.114 1.018-0.326l0.286-0.203 0.055 0.332c0.143 0.85 0.872 1.467 1.733 1.467h1.169c0.862 0 1.591-0.617 1.733-1.465l0.062-0.363 0.295 0.211c0.299 0.215 0.653 0.329 1.024 0.329 0.468 0 0.909-0.183 1.242-0.516l0.825-0.826c0.609-0.609 0.689-1.561 0.189-2.262l-0.214-0.3 0.362-0.060c0.85-0.143 1.467-0.872 1.467-1.733v-1.161c0.008-0.864-0.604-1.594-1.459-1.739l-0.363-0.062 0.214-0.299c0.502-0.705 0.421-1.658-0.19-2.262l-0.825-0.826c-0.333-0.333-0.774-0.516-1.242-0.516-0.369 0-0.723 0.114-1.018 0.326l-0.325 0.231c-0.002-0.001-0.003-0.001-0.005-0.002l-0.064-0.377c-0.143-0.85-0.872-1.467-1.733-1.467h-1.166c-0.862 0-1.591 0.617-1.733 1.464l-0.064 0.376-0.287-0.207c-0.299-0.215-0.653-0.329-1.024-0.329-0.472 0-0.914 0.184-1.244 0.518l-0.827 0.824c-0.609 0.609-0.689 1.561-0.189 2.262l0.222 0.313-0.348 0.059c-0.85 0.143-1.467 0.872-1.467 1.734v1.166c0 0.862 0.617 1.591 1.464 1.733zM10.306 15.724l0.804-0.136c0.364-0.062 0.657-0.32 0.766-0.674 0.075-0.247 0.172-0.486 0.288-0.709 0.169-0.325 0.142-0.713-0.071-1.011l-0.484-0.68 0.688-0.686 0.661 0.476c0.303 0.218 0.695 0.244 1.024 0.068 0.226-0.121 0.463-0.22 0.705-0.297 0.347-0.111 0.602-0.402 0.663-0.763l0.141-0.826h0.968l0.135 0.801c0.062 0.366 0.321 0.661 0.676 0.769 0.248 0.075 0.495 0.177 0.733 0.302 0.327 0.172 0.716 0.146 1.017-0.068l0.67-0.477 0.685 0.685-0.476 0.666c-0.215 0.3-0.243 0.689-0.071 1.018 0.117 0.225 0.216 0.464 0.294 0.711 0.11 0.351 0.404 0.606 0.765 0.667l0.808 0.137v0.969l-0.811 0.135c-0.365 0.061-0.66 0.319-0.769 0.672-0.072 0.232-0.171 0.471-0.294 0.707-0.169 0.325-0.143 0.713 0.070 1.013l0.479 0.672-0.686 0.686-0.667-0.477c-0.301-0.216-0.691-0.242-1.017-0.071-0.225 0.118-0.464 0.217-0.709 0.294-0.35 0.11-0.606 0.402-0.668 0.765l-0.138 0.814h-0.971l-0.135-0.81c-0.060-0.363-0.315-0.657-0.666-0.768-0.244-0.077-0.475-0.172-0.686-0.282-0.325-0.169-0.713-0.143-1.013 0.070l-0.679 0.483-0.684-0.684 0.474-0.66c0.216-0.302 0.241-0.693 0.067-1.022-0.12-0.226-0.22-0.463-0.296-0.703-0.11-0.348-0.402-0.603-0.763-0.665l-0.826-0.141z"></path>
<path d="M16 19.126c1.62 0 2.939-1.318 2.939-2.939s-1.318-2.939-2.939-2.939-2.939 1.318-2.939 2.939 1.318 2.939 2.939 2.939zM16 15.124c0.587 0 1.064 0.477 1.064 1.064s-0.477 1.064-1.064 1.064-1.064-0.477-1.064-1.064 0.477-1.064 1.064-1.064z"></path>
</symbol>
<symbol id="icon-idea" viewBox="0 0 32 32">
<title>idea</title>
<path d="M23.063 2.886c-1.896-1.881-4.402-2.903-7.057-2.886-5.517 0.002-10.006 4.491-10.006 10.009 0 0.184 0.005 0.371 0.016 0.555 0.106 1.848 0.757 3.637 1.883 5.174l0.751 1.026c1.653 2.408 1.746 3.521 1.734 3.806l-0.001 3.658c0 1.945 1.583 3.528 3.528 3.528h1.010v3.306c0 0.518 0.419 0.937 0.937 0.937s0.937-0.419 0.937-0.937v-3.306h1.306c1.945 0 3.528-1.583 3.528-3.528v-3.622l-0.001-0.032c-0.008-0.239 0.043-0.521 0.137-0.829 0.011-0.030 0.021-0.061 0.030-0.093 0.306-0.932 0.986-2.079 1.641-2.996l0.708-0.971c0.825-1.132 1.384-2.377 1.662-3.699 0.14-0.665 0.211-1.344 0.211-2.017 0-2.677-1.050-5.193-2.956-7.084zM19.761 20.351c-0.005 0.096-0.006 0.186-0.004 0.27v1.583h-7.499v-1.582c0.003-0.089 0.001-0.18-0.004-0.272zM18.103 25.883h-4.19c-0.912 0-1.654-0.742-1.654-1.654v-0.15h7.499v0.15c0 0.912-0.742 1.654-1.654 1.654zM23.974 11.601c-0.223 1.061-0.675 2.064-1.343 2.981l-0.715 0.982c-0.829 1.16-1.354 2.123-1.68 2.913h-3.295v-3.77c1.415-0.408 2.453-1.713 2.453-3.257 0-0.518-0.419-0.937-0.937-0.937s-0.937 0.419-0.937 0.937c0 0.836-0.68 1.516-1.516 1.516s-1.516-0.68-1.516-1.516c0-0.518-0.42-0.937-0.937-0.937s-0.937 0.419-0.937 0.937c0 1.544 1.038 2.849 2.453 3.257v3.77h-3.304c-0.414-0.987-1.023-1.981-1.576-2.786l-0.776-1.060c-0.912-1.245-1.439-2.688-1.524-4.175-0.009-0.148-0.013-0.299-0.013-0.447 0-4.486 3.65-8.136 8.136-8.136h0.007c2.154-0.017 4.187 0.815 5.726 2.343 1.549 1.537 2.402 3.581 2.402 5.754 0 0.543-0.058 1.092-0.171 1.631z"></path>
</symbol>
<symbol id="icon-hourglass" viewBox="0 0 32 32">
<title>hourglass</title>
<path d="M19.695 15.438c3.116-2.093 4.832-4.997 4.833-8.178v-1.891h1.24c0.575 0 1.043-0.468 1.043-1.043v-3.283c0-0.575-0.468-1.043-1.043-1.043h-19.537c-0.575 0-1.043 0.468-1.043 1.043v3.283c0 0.575 0.468 1.043 1.043 1.043h1.080v1.891c0 3.181 1.716 6.086 4.832 8.178 0.043 0.032 0.16 0.226 0.16 0.563s-0.118 0.531-0.16 0.563c-3.116 2.093-4.833 4.997-4.833 8.178v1.889h-1.080c-0.575 0-1.043 0.468-1.043 1.043v3.283c0 0.575 0.468 1.043 1.043 1.043h19.537c0.575 0 1.043-0.468 1.043-1.043v-3.283c0-0.575-0.468-1.043-1.043-1.043h-1.24v-1.889c0-3.181-1.716-6.086-4.832-8.178-0.043-0.032-0.16-0.226-0.16-0.563s0.117-0.53 0.16-0.563zM7.063 1.875h17.873v1.619h-17.873zM24.936 28.506v1.619h-17.873v-1.619zM18.649 18.12c2.582 1.733 4.003 4.085 4.003 6.622v1.889h-13.467v-1.889c0-2.537 1.422-4.888 4.003-6.622 0.619-0.416 0.989-1.208 0.989-2.119s-0.37-1.703-0.989-2.119c-2.582-1.733-4.003-4.085-4.003-6.622v-1.889l13.467 0v1.888c-0 2.537-1.422 4.888-4.003 6.622-0.62 0.416-0.99 1.208-0.99 2.119s0.37 1.703 0.989 2.119z"></path>
<path d="M18.37 10.037c0.009-0.029 0.016-0.059 0.022-0.089s0.011-0.061 0.014-0.091c0.003-0.031 0.004-0.062 0.004-0.093s-0.001-0.061-0.004-0.092c-0.003-0.031-0.008-0.061-0.014-0.091s-0.014-0.059-0.022-0.089c-0.009-0.029-0.020-0.058-0.031-0.086s-0.024-0.056-0.039-0.083c-0.014-0.027-0.031-0.054-0.047-0.079-0.018-0.026-0.036-0.051-0.055-0.074s-0.040-0.047-0.062-0.068c-0.022-0.022-0.044-0.042-0.069-0.062-0.023-0.020-0.048-0.038-0.074-0.055s-0.052-0.033-0.079-0.047c-0.027-0.014-0.055-0.028-0.083-0.040s-0.057-0.022-0.086-0.031c-0.029-0.010-0.059-0.017-0.089-0.022s-0.061-0.011-0.091-0.014c-0.061-0.006-0.123-0.006-0.185 0-0.031 0.003-0.061 0.008-0.091 0.014s-0.060 0.013-0.089 0.022c-0.029 0.009-0.058 0.019-0.086 0.031s-0.056 0.025-0.083 0.040c-0.027 0.014-0.054 0.030-0.079 0.047s-0.051 0.035-0.074 0.055c-0.024 0.019-0.047 0.040-0.068 0.062s-0.042 0.044-0.063 0.068c-0.019 0.024-0.038 0.049-0.054 0.074s-0.032 0.052-0.047 0.079c-0.014 0.027-0.027 0.055-0.039 0.083s-0.022 0.057-0.031 0.086c-0.010 0.030-0.017 0.059-0.022 0.089s-0.011 0.061-0.014 0.091c-0.003 0.031-0.005 0.061-0.005 0.092s0.002 0.062 0.005 0.093c0.003 0.030 0.008 0.061 0.014 0.091s0.013 0.060 0.022 0.089c0.009 0.029 0.019 0.058 0.031 0.086s0.025 0.056 0.039 0.083 0.030 0.053 0.047 0.079c0.017 0.026 0.036 0.051 0.054 0.074 0.020 0.024 0.041 0.047 0.063 0.069s0.044 0.042 0.068 0.062c0.024 0.020 0.049 0.038 0.074 0.054s0.052 0.033 0.079 0.048c0.027 0.014 0.055 0.027 0.083 0.039s0.057 0.023 0.086 0.031c0.029 0.009 0.059 0.016 0.089 0.023s0.061 0.011 0.091 0.014c0.031 0.003 0.061 0.004 0.092 0.004s0.062-0.001 0.093-0.004c0.030-0.003 0.061-0.008 0.091-0.014s0.060-0.014 0.089-0.023c0.029-0.009 0.058-0.019 0.086-0.031s0.056-0.024 0.083-0.039 0.053-0.031 0.079-0.048c0.026-0.017 0.051-0.035 0.074-0.054 0.024-0.019 0.047-0.040 0.069-0.062s0.042-0.045 0.062-0.069c0.019-0.023 0.037-0.048 0.055-0.074 0.016-0.026 0.032-0.052 0.047-0.079s0.027-0.055 0.039-0.083c0.012-0.028 0.022-0.057 0.031-0.086z"></path>
<path d="M14.29 10.684c0.030 0.006 0.061 0.011 0.091 0.014s0.062 0.004 0.092 0.004c0.031 0 0.062-0.001 0.093-0.004s0.061-0.008 0.091-0.014c0.029-0.006 0.059-0.014 0.089-0.023s0.058-0.019 0.086-0.031c0.028-0.011 0.056-0.024 0.083-0.039s0.053-0.031 0.079-0.048c0.025-0.017 0.051-0.035 0.074-0.054 0.024-0.019 0.047-0.040 0.069-0.062s0.043-0.045 0.062-0.069c0.019-0.023 0.037-0.048 0.055-0.074 0.016-0.026 0.032-0.052 0.047-0.079s0.028-0.055 0.039-0.083c0.012-0.028 0.022-0.057 0.031-0.086s0.016-0.059 0.022-0.089 0.011-0.061 0.014-0.091c0.003-0.031 0.004-0.062 0.004-0.093s-0.001-0.061-0.004-0.092c-0.003-0.031-0.007-0.061-0.014-0.091s-0.014-0.059-0.022-0.089c-0.009-0.029-0.020-0.058-0.031-0.086s-0.024-0.056-0.039-0.083c-0.014-0.027-0.031-0.054-0.047-0.079-0.018-0.026-0.036-0.051-0.055-0.074s-0.040-0.047-0.062-0.068c-0.022-0.022-0.044-0.042-0.069-0.062-0.023-0.020-0.048-0.038-0.074-0.055s-0.052-0.033-0.079-0.047c-0.027-0.014-0.055-0.028-0.083-0.040s-0.057-0.022-0.086-0.031c-0.029-0.010-0.059-0.017-0.089-0.022-0.031-0.006-0.061-0.011-0.091-0.014-0.061-0.006-0.123-0.006-0.184 0-0.031 0.003-0.061 0.008-0.091 0.014s-0.059 0.013-0.089 0.022c-0.029 0.009-0.058 0.019-0.086 0.031s-0.056 0.025-0.083 0.040c-0.027 0.014-0.054 0.030-0.079 0.047s-0.051 0.035-0.074 0.055c-0.024 0.019-0.047 0.040-0.068 0.062s-0.042 0.044-0.062 0.068c-0.019 0.024-0.038 0.049-0.055 0.074s-0.033 0.052-0.047 0.079c-0.014 0.027-0.028 0.055-0.040 0.083s-0.022 0.057-0.031 0.086c-0.009 0.030-0.017 0.059-0.022 0.089s-0.011 0.061-0.014 0.091c-0.003 0.031-0.005 0.061-0.005 0.092s0.002 0.062 0.005 0.093c0.003 0.030 0.007 0.061 0.014 0.091s0.014 0.060 0.022 0.089c0.009 0.029 0.019 0.058 0.031 0.086s0.025 0.056 0.040 0.083c0.014 0.027 0.030 0.053 0.047 0.079s0.036 0.051 0.055 0.074c0.019 0.024 0.040 0.047 0.062 0.069s0.044 0.042 0.068 0.062c0.024 0.020 0.049 0.038 0.074 0.054s0.052 0.033 0.079 0.048c0.027 0.014 0.055 0.027 0.083 0.039s0.057 0.023 0.086 0.031c0.030 0.009 0.060 0.016 0.089 0.023z"></path>
<path d="M15.311 11.602c-0.022 0.021-0.042 0.044-0.062 0.068s-0.038 0.049-0.055 0.074c-0.017 0.025-0.033 0.052-0.047 0.079s-0.028 0.054-0.040 0.083c-0.011 0.028-0.022 0.057-0.031 0.086s-0.017 0.059-0.022 0.089c-0.006 0.030-0.011 0.061-0.014 0.091s-0.005 0.061-0.005 0.092c0 0.031 0.002 0.062 0.005 0.093s0.007 0.061 0.014 0.091c0.006 0.030 0.013 0.060 0.022 0.089s0.019 0.058 0.031 0.086c0.012 0.028 0.025 0.056 0.040 0.083s0.030 0.053 0.047 0.079c0.017 0.026 0.036 0.051 0.055 0.074 0.019 0.024 0.040 0.047 0.062 0.069s0.044 0.042 0.068 0.062c0.024 0.020 0.049 0.038 0.074 0.054s0.052 0.033 0.079 0.048c0.027 0.014 0.055 0.027 0.083 0.039s0.057 0.023 0.086 0.031c0.030 0.009 0.060 0.016 0.089 0.023s0.061 0.011 0.091 0.014c0.031 0.003 0.061 0.004 0.092 0.004s0.062-0.001 0.093-0.004c0.030-0.003 0.061-0.008 0.091-0.014s0.060-0.014 0.089-0.023c0.029-0.009 0.058-0.019 0.086-0.031s0.056-0.024 0.083-0.039 0.053-0.031 0.079-0.048c0.025-0.017 0.051-0.035 0.074-0.054 0.024-0.019 0.047-0.040 0.069-0.062s0.043-0.045 0.062-0.069c0.019-0.023 0.037-0.048 0.054-0.074s0.033-0.052 0.048-0.079 0.028-0.055 0.039-0.083c0.012-0.028 0.022-0.057 0.031-0.086s0.016-0.059 0.022-0.089 0.011-0.061 0.014-0.091c0.003-0.031 0.004-0.062 0.004-0.093s-0.001-0.061-0.004-0.092c-0.003-0.031-0.007-0.061-0.014-0.091s-0.014-0.060-0.022-0.089c-0.009-0.029-0.020-0.058-0.031-0.086s-0.024-0.056-0.039-0.083c-0.014-0.027-0.031-0.054-0.048-0.079s-0.035-0.051-0.054-0.074c-0.020-0.024-0.040-0.047-0.062-0.068s-0.044-0.042-0.069-0.062c-0.023-0.020-0.048-0.038-0.074-0.055s-0.052-0.033-0.079-0.047c-0.027-0.014-0.055-0.028-0.083-0.040s-0.057-0.022-0.086-0.031c-0.029-0.010-0.059-0.017-0.089-0.022s-0.061-0.011-0.091-0.014c-0.061-0.006-0.123-0.006-0.184 0-0.031 0.003-0.061 0.008-0.091 0.014s-0.059 0.013-0.089 0.022c-0.029 0.009-0.058 0.019-0.086 0.031s-0.056 0.025-0.083 0.040c-0.027 0.014-0.054 0.030-0.079 0.047s-0.051 0.035-0.074 0.055c-0.024 0.019-0.047 0.040-0.068 0.062z"></path>
<path d="M15.393 22.331c-0.006-0.030-0.014-0.060-0.022-0.089s-0.020-0.058-0.031-0.086c-0.011-0.029-0.024-0.056-0.039-0.083s-0.031-0.054-0.047-0.079c-0.018-0.026-0.036-0.051-0.055-0.074s-0.040-0.047-0.062-0.068c-0.022-0.022-0.044-0.042-0.069-0.062-0.023-0.020-0.048-0.038-0.074-0.055s-0.052-0.033-0.079-0.047c-0.027-0.014-0.055-0.028-0.083-0.040s-0.057-0.022-0.086-0.031c-0.029-0.010-0.059-0.017-0.089-0.022s-0.061-0.011-0.091-0.014c-0.061-0.006-0.123-0.006-0.185 0-0.031 0.003-0.061 0.008-0.091 0.014s-0.059 0.013-0.089 0.022c-0.029 0.009-0.058 0.019-0.086 0.031s-0.056 0.025-0.083 0.040c-0.027 0.014-0.054 0.030-0.079 0.047s-0.051 0.035-0.074 0.055c-0.024 0.019-0.047 0.040-0.068 0.062s-0.042 0.044-0.062 0.068c-0.020 0.024-0.038 0.049-0.055 0.074s-0.032 0.052-0.047 0.079c-0.014 0.027-0.027 0.054-0.039 0.083s-0.022 0.057-0.031 0.086c-0.009 0.029-0.017 0.059-0.022 0.089s-0.011 0.061-0.014 0.091c-0.003 0.031-0.005 0.061-0.005 0.092s0.002 0.062 0.005 0.093c0.003 0.030 0.008 0.061 0.014 0.091s0.014 0.060 0.022 0.089c0.009 0.029 0.019 0.058 0.031 0.086s0.025 0.056 0.039 0.083 0.030 0.053 0.047 0.079c0.017 0.026 0.036 0.051 0.055 0.074 0.019 0.024 0.040 0.047 0.062 0.069s0.044 0.042 0.068 0.062c0.024 0.020 0.049 0.038 0.074 0.054s0.052 0.033 0.079 0.048c0.027 0.014 0.055 0.027 0.083 0.039s0.057 0.023 0.086 0.031c0.030 0.009 0.059 0.016 0.089 0.023s0.061 0.011 0.091 0.014c0.031 0.003 0.062 0.004 0.092 0.004s0.062-0.001 0.093-0.004c0.031-0.003 0.061-0.008 0.091-0.014s0.060-0.014 0.089-0.023c0.029-0.009 0.058-0.019 0.086-0.031s0.056-0.024 0.083-0.039 0.053-0.031 0.079-0.048c0.026-0.017 0.051-0.035 0.074-0.054 0.024-0.019 0.047-0.040 0.069-0.062s0.042-0.044 0.062-0.069c0.019-0.023 0.037-0.048 0.055-0.074 0.016-0.026 0.032-0.052 0.047-0.079s0.027-0.055 0.039-0.083c0.012-0.028 0.022-0.057 0.031-0.086s0.016-0.059 0.022-0.089c0.006-0.030 0.011-0.061 0.014-0.091s0.004-0.062 0.004-0.093c0-0.031-0.001-0.061-0.004-0.092s-0.008-0.061-0.014-0.091z"></path>
<path d="M17.566 21.582c-0.061-0.006-0.123-0.006-0.184 0-0.031 0.003-0.061 0.008-0.091 0.014s-0.060 0.013-0.089 0.022c-0.029 0.009-0.058 0.019-0.086 0.031s-0.056 0.025-0.083 0.040c-0.027 0.014-0.054 0.030-0.079 0.047s-0.051 0.035-0.074 0.054c-0.024 0.020-0.047 0.041-0.068 0.063s-0.042 0.044-0.063 0.068c-0.019 0.024-0.037 0.049-0.054 0.074s-0.033 0.052-0.047 0.079c-0.014 0.027-0.028 0.054-0.040 0.083s-0.022 0.057-0.031 0.086c-0.009 0.029-0.017 0.059-0.022 0.089s-0.011 0.061-0.014 0.091c-0.003 0.031-0.005 0.061-0.005 0.092s0.002 0.062 0.005 0.093c0.003 0.030 0.007 0.061 0.014 0.091s0.013 0.060 0.022 0.089c0.009 0.029 0.019 0.058 0.031 0.086s0.025 0.056 0.040 0.083c0.014 0.027 0.030 0.053 0.047 0.079s0.036 0.051 0.054 0.074c0.020 0.024 0.041 0.047 0.063 0.069s0.044 0.042 0.068 0.062c0.024 0.020 0.049 0.038 0.074 0.055 0.025 0.016 0.052 0.032 0.079 0.047s0.055 0.027 0.083 0.039c0.028 0.012 0.057 0.023 0.086 0.031s0.059 0.016 0.089 0.023c0.030 0.006 0.061 0.011 0.091 0.014s0.061 0.004 0.092 0.004c0.031 0 0.062-0.001 0.093-0.004s0.061-0.008 0.091-0.014c0.030-0.006 0.060-0.014 0.089-0.023s0.058-0.019 0.086-0.031c0.028-0.011 0.056-0.024 0.083-0.039s0.053-0.031 0.079-0.047c0.025-0.018 0.051-0.036 0.074-0.055 0.024-0.019 0.047-0.040 0.069-0.062s0.043-0.044 0.062-0.069c0.019-0.023 0.037-0.048 0.055-0.074 0.016-0.026 0.032-0.052 0.047-0.079s0.028-0.055 0.039-0.083c0.012-0.028 0.022-0.057 0.031-0.086s0.016-0.059 0.022-0.089 0.011-0.061 0.014-0.091c0.003-0.031 0.004-0.062 0.004-0.093s-0.001-0.061-0.004-0.092c-0.003-0.031-0.007-0.061-0.014-0.091s-0.014-0.060-0.022-0.089c-0.009-0.029-0.020-0.058-0.031-0.086s-0.024-0.056-0.039-0.083c-0.014-0.027-0.031-0.054-0.047-0.079-0.018-0.026-0.036-0.051-0.055-0.074s-0.040-0.047-0.062-0.068c-0.022-0.022-0.044-0.042-0.069-0.063-0.023-0.019-0.048-0.037-0.074-0.054s-0.052-0.033-0.079-0.047c-0.027-0.014-0.055-0.028-0.083-0.040s-0.057-0.022-0.086-0.031c-0.029-0.010-0.059-0.017-0.089-0.022s-0.061-0.011-0.091-0.014z"></path>
<path d="M16.636 20.677c0.022-0.022 0.042-0.044 0.062-0.069 0.019-0.023 0.037-0.048 0.054-0.074s0.033-0.052 0.048-0.079 0.027-0.055 0.039-0.083c0.012-0.028 0.022-0.057 0.031-0.086s0.016-0.059 0.022-0.089c0.006-0.030 0.011-0.061 0.014-0.091s0.004-0.062 0.004-0.093c0-0.031-0.001-0.061-0.004-0.092s-0.008-0.061-0.014-0.091c-0.006-0.030-0.014-0.059-0.022-0.089s-0.020-0.058-0.031-0.086c-0.011-0.028-0.024-0.056-0.039-0.083s-0.031-0.054-0.048-0.079c-0.017-0.026-0.035-0.051-0.054-0.074s-0.040-0.047-0.062-0.068c-0.022-0.022-0.044-0.042-0.069-0.062-0.023-0.020-0.048-0.038-0.074-0.055s-0.052-0.033-0.079-0.047c-0.027-0.014-0.055-0.028-0.083-0.040s-0.057-0.022-0.086-0.031c-0.029-0.010-0.059-0.017-0.089-0.022s-0.061-0.011-0.091-0.014c-0.061-0.006-0.123-0.006-0.185 0-0.031 0.003-0.061 0.008-0.091 0.014s-0.059 0.013-0.089 0.022c-0.029 0.009-0.058 0.019-0.086 0.031s-0.056 0.025-0.083 0.040c-0.027 0.014-0.054 0.030-0.079 0.047s-0.051 0.035-0.074 0.055c-0.024 0.019-0.047 0.040-0.068 0.062s-0.042 0.044-0.062 0.068c-0.020 0.024-0.038 0.049-0.055 0.074s-0.032 0.052-0.047 0.079c-0.014 0.027-0.027 0.055-0.039 0.083s-0.022 0.057-0.031 0.086c-0.010 0.030-0.017 0.059-0.022 0.089s-0.011 0.061-0.014 0.091c-0.003 0.031-0.005 0.061-0.005 0.092s0.002 0.062 0.005 0.093c0.003 0.030 0.008 0.061 0.014 0.091s0.013 0.060 0.022 0.089c0.009 0.029 0.019 0.058 0.031 0.086s0.025 0.056 0.039 0.083 0.030 0.053 0.047 0.079c0.017 0.026 0.036 0.051 0.055 0.074s0.040 0.047 0.062 0.069c0.021 0.022 0.044 0.042 0.068 0.062s0.049 0.038 0.074 0.054c0.025 0.017 0.052 0.033 0.079 0.048s0.055 0.027 0.083 0.039c0.028 0.012 0.057 0.023 0.086 0.031s0.059 0.016 0.089 0.023c0.030 0.006 0.061 0.011 0.091 0.014s0.061 0.004 0.092 0.004c0.031 0 0.062-0.001 0.093-0.004s0.061-0.008 0.091-0.014c0.030-0.006 0.060-0.014 0.089-0.023s0.058-0.019 0.086-0.031c0.028-0.011 0.056-0.024 0.083-0.039s0.053-0.031 0.079-0.048c0.026-0.017 0.051-0.035 0.074-0.054 0.024-0.019 0.047-0.040 0.069-0.062z"></path>
</symbol>
<symbol id="icon-customer-review" viewBox="0 0 32 32">
<title>customer-review</title>
<path d="M28.848 8.872c-1.942-1.408-4.504-2.184-7.214-2.184s-5.272 0.776-7.213 2.184c-0.737 0.534-1.352 1.136-1.839 1.787-1.233-0.496-2.609-0.756-4.028-0.756-2.228 0-4.335 0.639-5.934 1.799-1.69 1.226-2.62 2.882-2.62 4.664 0 1.194 0.425 2.357 1.228 3.363 0.613 0.767 1.437 1.428 2.411 1.939-0.169 0.26-0.45 0.602-0.913 1.023-0.513 0.469-0.638 1.221-0.305 1.824 0.262 0.48 0.765 0.778 1.313 0.778 0.136 0 0.271-0.019 0.401-0.056 0.261-0.072 3.327-0.935 5.45-2.46 2.178-0.196 4.141-1.005 5.534-2.267 1.522 0.924 3.364 1.507 5.321 1.675 2.61 1.898 6.442 2.97 6.727 3.048 0.141 0.040 0.288 0.060 0.435 0.060 0.597 0 1.145-0.325 1.428-0.844 0.364-0.66 0.229-1.479-0.333-1.991-0.712-0.647-1.092-1.155-1.294-1.518 1.269-0.631 2.338-1.466 3.12-2.444 0.966-1.207 1.477-2.601 1.477-4.030 0-2.132-1.119-4.118-3.152-5.593zM9.208 20.923c-0.203 0.014-0.396 0.086-0.558 0.21-1.093 0.834-2.578 1.465-3.646 1.851 0.408-0.541 0.655-1.064 0.739-1.566 0.080-0.478-0.177-0.943-0.627-1.129-1.999-0.828-3.241-2.332-3.241-3.924 0-1.165 0.656-2.281 1.846-3.145 1.281-0.929 2.997-1.441 4.832-1.441 1.096 0 2.155 0.185 3.11 0.537-0.26 0.688-0.395 1.41-0.395 2.148 0 1.793 0.815 3.508 2.309 4.889-1.119 0.884-2.685 1.455-4.37 1.569zM29.058 17.322c-0.731 0.912-1.803 1.678-3.101 2.213-0.445 0.184-0.704 0.644-0.629 1.12 0.122 0.777 0.586 1.606 1.382 2.473-1.308-0.434-3.694-1.334-5.335-2.587-0.162-0.124-0.356-0.197-0.56-0.211-4.301-0.289-7.67-2.866-7.67-5.866 0-1.515 0.844-2.962 2.377-4.074 1.624-1.178 3.794-1.827 6.112-1.827s4.489 0.649 6.113 1.827c1.533 1.112 2.377 2.559 2.377 4.074 0 0.999-0.368 1.987-1.065 2.858z"></path>
<path d="M25.102 12.092h-6.935c-0.518 0-0.938 0.42-0.938 0.938s0.42 0.938 0.938 0.938h6.935c0.518 0 0.938-0.42 0.938-0.938s-0.42-0.938-0.938-0.938z"></path>
<path d="M25.102 15.232h-6.935c-0.518 0-0.938 0.42-0.938 0.938s0.42 0.938 0.938 0.938h6.935c0.518 0 0.938-0.42 0.938-0.938s-0.42-0.938-0.938-0.938z"></path>
</symbol>
</defs>
</svg>
